<?xml version="1.0" encoding="UTF-8" standalone="no"?>
<svg width="22px" height="22px" viewBox="0 0 22 22" version="1.1" xmlns="http://www.w3.org/2000/svg" xmlns:xlink="http://www.w3.org/1999/xlink" xmlns:sketch="http://www.bohemiancoding.com/sketch/ns">
    <!-- Generator: Sketch 3.5.1 (25234) - http://www.bohemiancoding.com/sketch -->
    <title>3D Loc</title>
    <desc>Created with Sketch.</desc>
    <defs></defs>
    <g id="Welcome" stroke="none" stroke-width="1" fill="none" fill-rule="evenodd" sketch:type="MSPage">
        <g id="Icons" sketch:type="MSArtboardGroup" transform="translate(-360.000000, -146.000000)" fill="#FFFFFF">
            <g id="Group-3-Copy-5" sketch:type="MSLayerGroup" transform="translate(351.000000, 136.000000)">
                <path d="M21,27.9381062 C24.6187173,27.4868586 27.4868586,24.6187173 27.9381062,21 L27,21 L27,19 L27.9381062,19 C27.4868586,15.3812827 24.6187173,12.5131414 21,12.0618938 L21,13 L19,13 L19,12.0618938 C15.3812827,12.5131414 12.5131414,15.3812827 12.0618938,19 L13,19 L13,21 L12.0618938,21 C12.5131414,24.6187173 15.3812827,27.4868586 19,27.9381062 L19,27 L21,27 L21,27.9381062 Z M21,19 L21,17 L19,17 L19,19 L17,19 L17,21 L19,21 L19,23 L21,23 L21,21 L23,21 L23,19 L21,19 Z M20,30 C25.5228475,30 30,25.5228475 30,20 C30,14.4771525 25.5228475,10 20,10 C14.4771525,10 10,14.4771525 10,20 C10,25.5228475 14.4771525,30 20,30 Z M24,19 L26,19 L26,21 L24,21 L24,19 Z M19,14 L21,14 L21,16 L19,16 L19,14 Z M14,19 L16,19 L16,21 L14,21 L14,19 Z M19,24 L21,24 L21,26 L19,26 L19,24 Z" id="3D-Loc" sketch:type="MSShapeGroup"></path>
            </g>
        </g>
    </g>
</svg>