<?xml version="1.0" encoding="UTF-8" standalone="no"?>
<svg width="26px" height="26px" viewBox="0 0 26 26" version="1.1" xmlns="http://www.w3.org/2000/svg" xmlns:xlink="http://www.w3.org/1999/xlink" xmlns:sketch="http://www.bohemiancoding.com/sketch/ns">
    <!-- Generator: Sketch 3.5.1 (25234) - http://www.bohemiancoding.com/sketch -->
    <title>Contrast</title>
    <desc>Created with Sketch.</desc>
    <defs></defs>
    <g id="Welcome" stroke="none" stroke-width="1" fill="none" fill-rule="evenodd" sketch:type="MSPage">
        <g id="Icons" sketch:type="MSArtboardGroup" transform="translate(-526.000000, -88.000000)" fill="#FFFFFF">
            <g id="Group-3-Copy-3" sketch:type="MSLayerGroup" transform="translate(519.000000, 80.000000)">
                <path d="M20,15 C22.7614237,15 25,17.2385763 25,20 C25,22.7614237 22.7614237,25 20,25 L20,15 Z M20,28 C24.418278,28 28,24.418278 28,20 C28,15.581722 24.418278,12 20,12 C15.581722,12 12,15.581722 12,20 C12,24.418278 15.581722,28 20,28 Z M20,26 C23.3137085,26 26,23.3137085 26,20 C26,16.6862915 23.3137085,14 20,14 C16.6862915,14 14,16.6862915 14,20 C14,23.3137085 16.6862915,26 20,26 Z M19,8 L21,8 L21,11 L19,11 L19,8 Z M32,19 L32,21 L29,21 L29,19 L32,19 Z M11,19 L11,21 L8,21 L8,19 L11,19 Z M14.5355339,13.1213203 L13.1213203,14.5355339 L11,12.4142136 L12.4142136,11 L14.5355339,13.1213203 Z M25.5,13.1213203 L26.9142136,14.5355339 L29.0355339,12.4142136 L27.6213203,11 L25.5,13.1213203 Z M11,27.6213203 L12.4142136,29.0355339 L14.5355339,26.9142136 L13.1213203,25.5 L11,27.6213203 Z M29.0355339,27.6213203 L27.6213203,29.0355339 L25.5,26.9142136 L26.9142136,25.5 L29.0355339,27.6213203 Z M19,29 L21,29 L21,32 L19,32 L19,29 Z" id="Contrast" sketch:type="MSShapeGroup"></path>
            </g>
        </g>
    </g>
</svg>