<?xml version="1.0" encoding="UTF-8" standalone="no"?>
<svg width="23px" height="23px" viewBox="0 0 23 23" version="1.1" xmlns="http://www.w3.org/2000/svg" xmlns:xlink="http://www.w3.org/1999/xlink" xmlns:sketch="http://www.bohemiancoding.com/sketch/ns">
    <!-- Generator: Sketch 3.5.1 (25234) - http://www.bohemiancoding.com/sketch -->
    <title>DICOM</title>
    <desc>Created with Sketch.</desc>
    <defs></defs>
    <g id="Welcome" stroke="none" stroke-width="1" fill="none" fill-rule="evenodd" sketch:type="MSPage">
        <g id="Icons" sketch:type="MSArtboardGroup" transform="translate(-472.000000, -258.000000)" fill="#FFFFFF">
            <g id="Group-3-Copy-17" sketch:type="MSLayerGroup" transform="translate(463.000000, 248.000000)">
                <path d="M10,10 L10,31 L31,31 L31,10 L10,10 Z M29.6875,29.6875 L11.3125,29.6875 L11.3125,11.3125 L29.6875,11.3125 L29.6875,29.6875 Z M17.0595745,24.0297872 C16.8361702,24.0297872 16.612766,23.9404255 16.4340426,23.7617021 L13.7978723,21.1255319 C13.4404255,20.7680851 13.4404255,20.2319149 13.7978723,19.8744681 L16.4340426,17.2382979 C16.7914894,16.8808511 17.3276596,16.8808511 17.6851064,17.2382979 C18.0425532,17.5957447 18.0425532,18.1319149 17.6851064,18.4893617 L15.6744681,20.5 L17.6851064,22.5106383 C18.0425532,22.8680851 18.0425532,23.4042553 17.6851064,23.7617021 C17.506383,23.9404255 17.2829787,24.0297872 17.0595745,24.0297872 Z M23.9404255,24.0297872 C23.7170213,24.0297872 23.493617,23.9404255 23.3148936,23.7617021 C22.9574468,23.4042553 22.9574468,22.8680851 23.3148936,22.5106383 L25.3255319,20.5 L23.3148936,18.4893617 C22.9574468,18.1319149 22.9574468,17.5957447 23.3148936,17.2382979 C23.6723404,16.8808511 24.2085106,16.8808511 24.5659574,17.2382979 L27.2021277,19.8744681 C27.3808511,20.0531915 27.4702128,20.2765957 27.4702128,20.5 C27.4702128,20.7234043 27.3808511,20.9468085 27.2021277,21.1255319 L24.5659574,23.7617021 C24.387234,23.9404255 24.1638298,24.0297872 23.9404255,24.0297872 Z M18.712766,25.4148936 C18.5787234,25.4148936 18.4893617,25.3702128 18.3553191,25.3255319 C17.9085106,25.1468085 17.7297872,24.6106383 17.9085106,24.1638298 L21.4829787,16.0319149 C21.6617021,15.5851064 22.1978723,15.406383 22.6446809,15.5851064 C23.0914894,15.7638298 23.2702128,16.3 23.0914894,16.7468085 L19.5170213,24.8787234 C19.3829787,25.2361702 19.0255319,25.4148936 18.712766,25.4148936 Z" id="DICOM" sketch:type="MSShapeGroup"></path>
            </g>
        </g>
    </g>
</svg>