<?xml version="1.0" encoding="UTF-8" standalone="no"?>
<svg width="21px" height="21px" viewBox="0 0 21 21" version="1.1" xmlns="http://www.w3.org/2000/svg" xmlns:xlink="http://www.w3.org/1999/xlink" xmlns:sketch="http://www.bohemiancoding.com/sketch/ns">
    <!-- Generator: Sketch 3.5.1 (25234) - http://www.bohemiancoding.com/sketch -->
    <title>Grid</title>
    <desc>Created with Sketch.</desc>
    <defs></defs>
    <g id="Welcome" stroke="none" stroke-width="1" fill="none" fill-rule="evenodd" sketch:type="MSPage">
        <g id="Icons" sketch:type="MSArtboardGroup" transform="translate(-360.000000, -91.000000)" fill="#FFFFFF">
            <g id="Group-3-Copy" sketch:type="MSLayerGroup" transform="translate(351.000000, 80.000000)">
                <path d="M24,18 L29,18 L29,23 L24,23 L24,18 Z M17,11 L22,11 L22,16 L17,16 L17,11 Z M10,11 L15,11 L15,16 L10,16 L10,11 Z M24,11 L29,11 L29,16 L24,16 L24,11 Z M10,18 L15,18 L15,23 L10,23 L10,18 Z M17,18 L22,18 L22,23 L17,23 L17,18 Z M10,25 L15,25 L15,30 L10,30 L10,25 Z M17,25 L22,25 L22,30 L17,30 L17,25 Z M24,25 L29,25 L29,30 L24,30 L24,25 Z" id="Grid" sketch:type="MSShapeGroup"></path>
            </g>
        </g>
    </g>
</svg>