<?xml version="1.0" encoding="UTF-8" standalone="no"?>
<svg width="22px" height="22px" viewBox="0 0 22 22" version="1.1" xmlns="http://www.w3.org/2000/svg" xmlns:xlink="http://www.w3.org/1999/xlink" xmlns:sketch="http://www.bohemiancoding.com/sketch/ns">
    <!-- Generator: Sketch 3.5.1 (25234) - http://www.bohemiancoding.com/sketch -->
    <title>Save</title>
    <desc>Created with Sketch.</desc>
    <defs></defs>
    <g id="Main" stroke="none" stroke-width="1" fill="none" fill-rule="evenodd" sketch:type="MSPage">
        <g id="Icons" sketch:type="MSArtboardGroup" transform="translate(-360.000000, -313.000000)" fill="#FFFFFF">
            <path d="M377.5625,313.5 L376.578067,313.5 L376.578067,320.718867 L365.421933,320.718867 L365.421933,313.5 L363.781367,313.5 L361.8125,313.5 C361.087767,313.5 360.5,314.087767 360.5,314.8125 L360.5,333.1875 C360.5,333.912233 361.087767,334.5 361.8125,334.5 L363.781367,334.5 L378.583333,334.5 L380.1875,334.5 C380.912233,334.5 381.5,333.912233 381.5,333.1875 L381.5,317.4375 L377.5625,313.5 Z M378.875,332.531133 L363.125,332.531133 L363.125,323.343867 L378.875,323.343867 L378.875,332.531133 Z M364.4375,329.906133 L377.5625,329.906133 L377.5625,331.218633 L364.4375,331.218633 L364.4375,329.906133 Z M372.640567,314.8125 L375.265567,314.8125 L375.265567,319.406367 L372.640567,319.406367 L372.640567,314.8125 Z M364.4375,324.656367 L377.5625,324.656367 L377.5625,325.968867 L364.4375,325.968867 L364.4375,324.656367 Z M364.4375,327.281133 L377.5625,327.281133 L377.5625,328.593633 L364.4375,328.593633 L364.4375,327.281133 Z" id="Save" sketch:type="MSShapeGroup"></path>
        </g>
    </g>
</svg>