<?xml version="1.0" encoding="UTF-8" standalone="no"?>
<svg width="24px" height="24px" viewBox="0 0 24 24" version="1.1" xmlns="http://www.w3.org/2000/svg" xmlns:xlink="http://www.w3.org/1999/xlink" xmlns:sketch="http://www.bohemiancoding.com/sketch/ns">
    <!-- Generator: Sketch 3.5.1 (25234) - http://www.bohemiancoding.com/sketch -->
    <title>Shape</title>
    <desc>Created with Sketch.</desc>
    <defs></defs>
    <g id="Welcome" stroke="none" stroke-width="1" fill="none" fill-rule="evenodd" sketch:type="MSPage">
        <g id="Icons" sketch:type="MSArtboardGroup" transform="translate(-471.000000, -89.000000)" fill="#FFFFFF">
            <g id="Group-3-Copy-20" sketch:type="MSLayerGroup" transform="translate(463.000000, 80.000000)">
                <path d="M19.3169563,12.6520513 C19.3346133,12.6327821 19.3529713,12.6137322 19.3720202,12.5949309 C19.4542188,12.514011 19.5442248,12.4416871 19.6395239,12.3725964 C19.2807978,12.0260125 18.8811724,11.8714606 18.3482937,11.8714606 C18.2254149,11.8714606 18.0934486,11.8796288 17.9448877,11.8959653 C17.8058094,11.8971322 17.6995252,11.8275079 17.6378882,11.7679966 C17.5035513,11.63925 17.3798823,11.4980566 17.2601644,11.3615308 L17.2214437,11.317189 C17.1894399,11.2802376 17.1720551,11.2401745 17.157041,11.2047789 L17.0665611,11.0223555 L17.2348774,11.0137983 C17.2471258,11.0134093 17.2613497,11.0102976 17.2751785,11.0079639 C17.3565709,10.9943502 17.4221589,10.9978508 17.4668062,11.0348023 L17.531604,11.0873122 C17.6532975,11.1845528 17.778942,11.2856831 17.86231,11.4206531 C17.9342198,11.5377308 17.9867692,11.5128372 18.0748784,11.5027242 C18.5782469,11.4509922 19.0606746,11.5423983 19.5162349,11.7726642 C19.6379284,11.8341202 19.7291985,11.9414739 19.8026887,12.0278236 C19.847336,12.0811114 19.8453604,12.1437344 19.84378,12.210247 C19.8436766,12.2173756 19.8435189,12.2247974 19.8433781,12.2325335 C19.8709238,12.2142839 19.8987322,12.1959999 19.9267528,12.1775741 C20.0065648,12.1250642 20.0887474,12.0709984 20.1729055,12.012654 C20.1827832,11.182997 20.8513071,10.7928676 21.508768,10.5209828 L21.5578928,10.5006079 C21.4784479,10.4991268 21.3936247,10.5068574 21.3041017,10.5244835 C21.268937,10.5314848 21.2132267,10.5299289 21.1946566,10.5093139 C20.9066223,10.176751 20.5731506,10.3202781 20.2396789,10.4074057 C20.1796224,10.4229642 20.0970447,10.3980706 20.0389637,10.3669536 C19.8232343,10.2502649 19.7114186,10.2378181 19.5154447,10.3358366 C19.8157273,10.4816976 19.9686343,10.7002945 19.8631403,11.0332464 C19.847336,11.0842005 19.7868844,11.1223188 19.7465833,11.1658826 C19.7209012,11.1090941 19.6853414,11.0546394 19.6715126,10.9943502 C19.647411,10.8889413 19.6770441,10.7329674 19.6138268,10.6816243 C19.302086,10.4268539 18.9579463,10.228483 18.5217464,10.3132768 C18.3040415,10.3560627 18.0843611,10.3902914 17.8686317,10.4400786 C17.5956116,10.5027015 17.3048116,10.5272062 17.1210861,10.7166309 C17.1147644,10.8267073 17.1108133,10.902944 17.1064671,10.9787917 C17.0349524,10.954676 16.9646231,10.9223921 16.8911328,10.9091674 C16.7812926,10.8889413 16.651697,10.8414879 16.5616122,10.8784393 C16.2814802,10.9943502 16.0001628,11.120763 15.7504541,11.2880169 C15.6486924,11.3564316 15.5364844,11.436972 15.476611,11.55085 L13.5219236,10.9903524 C14.0872737,10.5644386 14.7508321,10.2046523 15.3688697,9.90385575 L16.2693079,9.49304176 C16.2693079,9.49304176 19.0293979,8.59209615 22.0138404,9.22597339 C25.2054694,9.90385578 26.5196221,11.3169616 26.5196221,11.3169616 C26.9141872,11.6994978 27.2684579,12.1295564 27.5728595,12.6091012 C28.0910856,13.4268015 28.4841628,14.3667092 28.709943,15.3454469 L26.537156,14.7224102 C26.536537,14.712015 26.5337338,14.7036029 26.5282286,14.6976622 C26.3279085,14.4794543 26.464221,14.2036798 26.3666292,13.9893615 C26.2172781,13.6595213 26.0189335,13.3518519 25.8296765,13.0414599 C25.7850292,12.9687239 25.7028466,12.8897645 25.6226395,12.8710943 C25.289958,12.790968 24.9655738,12.998674 24.8671917,13.3324038 C24.839139,13.4257548 24.8229396,13.528052 24.7711803,13.6054555 C24.7375961,13.6560206 24.6479064,13.6696343 24.5838988,13.6991955 C24.6000983,13.6392952 24.6143222,13.5774502 24.6348678,13.5187169 C24.6443504,13.4914895 24.6747738,13.4697076 24.67912,13.4428692 C24.7431276,13.0204559 24.9869097,12.7668523 25.4152075,12.6948943 C25.3326298,12.4093958 24.0805304,11.3521957 23.8154124,11.3261352 C23.864801,11.463439 23.9248575,11.6011317 23.9596271,11.7450478 C23.9730608,11.8022253 23.9280184,11.8726275 23.9098434,11.9371953 C23.8584793,11.888186 23.7755065,11.846567 23.7608874,11.7886116 C23.6945092,11.5260619 23.5692597,11.3059091 23.3262679,11.1748288 C23.021244,11.0102976 22.7067375,10.8628808 22.3993429,10.7100186 C22.421469,10.9819034 22.4507071,11.2265608 22.4530777,11.4719961 C22.4538679,11.535397 22.3681293,11.6003538 22.3222967,11.6649215 C22.2970098,11.5906297 22.2401141,11.5120593 22.2511772,11.4436019 C22.3319864,10.941167 22.1128745,10.5923386 21.7118382,10.516107 L21.654168,10.6606203 C21.6427098,10.6894036 21.6344125,10.716242 21.6273006,10.7399687 C21.6091256,10.7994799 21.5901604,10.861325 21.5368207,10.9033329 C21.4510821,10.9714014 21.3527,11.0153541 21.2574789,11.0573621 C20.8256251,11.2495096 20.600018,11.5634023 20.5644582,12.0180995 C20.5597169,12.0826673 20.5486539,12.147235 20.5371957,12.2137476 L20.5119088,12.3708885 L20.4407892,12.3883918 C20.1667191,12.4562027 19.9286564,12.5842952 19.729946,12.7704742 L19.3169553,12.652051 Z M26.609035,18.5453996 C26.5644904,18.646981 26.5186426,18.7479824 26.4693574,18.8475033 C26.4077205,18.9711934 26.2978803,19.005811 26.1584069,18.9385205 C26.0951895,18.9089594 26.0137971,18.9179055 25.9410971,18.9089594 C25.9778422,18.9809174 26.0102411,19.0555982 26.0537031,19.1232777 C26.0710879,19.150894 26.1145498,19.1637298 26.1453683,19.182011 C25.9719156,19.5083506 25.8944743,19.5211863 25.5689048,19.3706579 C25.2109363,19.2045709 24.8375586,19.0699898 24.4760342,18.9120711 C24.304557,18.8381682 24.115695,18.7704887 23.9860994,18.6479655 C23.8845565,18.5526697 23.8165978,18.3760807 23.8165978,18.2348873 C23.8158075,18.082803 23.9390815,17.9661142 24.1247825,17.9556122 C24.1690347,17.9528895 24.2425249,17.9143822 24.2488467,17.8817094 C24.2497129,17.8775841 24.2506038,17.8734787 24.251519,17.8693928 L24.0077314,17.7994878 C23.9981069,17.8059156 23.9881539,17.8116039 23.9778021,17.8163637 C23.7652336,17.9139932 23.5878298,18.1170317 23.6399842,18.3297942 C23.6988554,18.5717289 23.5767668,18.7074768 23.417538,18.8035505 C23.1176505,18.9832512 22.8003782,19.1357245 22.4807353,19.2815854 C22.3752413,19.3298168 22.2440652,19.3228155 22.1085429,19.2986998 C22.1472636,19.2749731 22.1844038,19.2496905 22.2239147,19.2279086 C22.8738685,18.8790092 22.9671141,17.7996383 22.3795875,17.4363473 C22.3471886,17.4161212 22.3155799,17.3830594 22.2816005,17.3795588 C22.2345826,17.3745022 22.1847989,17.3920056 22.1369908,17.3997848 C22.1603022,17.43907 22.1737359,17.4985813 22.2081103,17.5153067 C22.7189859,17.7529628 22.7249125,18.612181 22.3432375,18.9136269 C21.9425973,19.2310203 21.5265479,19.5546371 20.9765566,19.5997568 C20.916105,19.6048133 20.8552582,19.6005347 20.7841387,19.6005347 C21.1156348,19.2784737 21.025155,18.8475033 20.5996229,18.6689695 C20.57078,18.6565227 20.530874,18.6713033 20.4964995,18.6732481 C20.5008457,18.7129222 20.4901778,18.7650432 20.5119088,18.7903258 C20.5976474,18.8867885 20.7035365,18.9673037 20.7825582,19.0688229 C20.9109685,19.2333541 20.8754088,19.3267051 20.6956343,19.4282243 C20.6280707,19.4659537 20.5877696,19.5472468 20.5300838,19.6048133 C20.4897827,19.6448764 20.4459256,19.7036098 20.3961419,19.711 C19.7774017,19.80474 19.1669588,19.9618809 18.5264877,19.8401356 C18.051567,19.7506742 17.7682741,19.5056278 17.6868817,19.0388728 C17.6611997,18.8895112 17.5790171,18.8175532 17.4355926,18.7630984 C16.9748959,18.5861205 16.9018008,18.46632 16.9018008,17.9808948 C16.9018008,17.9124374 16.9112834,17.8428131 16.899035,17.7766895 C16.8875769,17.7164003 16.8528073,17.6603897 16.8283106,17.6024343 C16.7769464,17.6343292 16.709778,17.6541663 16.6769839,17.6992859 C16.5548954,17.8638171 16.4075198,17.7584082 16.3091378,17.7070652 C16.1360802,17.616048 16.0428345,17.6743923 15.9013856,17.771244 C15.7856188,17.8505924 15.6113758,17.8638171 15.4608394,17.8715963 C15.2506416,17.8824873 15.0384683,17.8529261 14.8274802,17.8564268 C14.4687215,17.8634281 14.1253721,17.8066396 13.8061243,17.6440533 C13.6544025,17.5674276 13.5011004,17.470576 13.5291531,17.2687044 C13.5619471,17.0329932 13.7800471,16.8124514 13.9783917,16.7704435 C14.0447699,16.7564408 14.1028509,16.7031529 14.1644879,16.6685353 C14.085071,16.6514209 13.9827379,16.5954103 13.9301884,16.6253604 C13.7444873,16.7284355 13.5753808,16.8606828 13.3695292,17.0042099 C13.3545151,16.9874845 13.2790493,16.931085 13.2462553,16.8567931 C13.1032259,16.5331763 12.8724825,16.2076147 12.8626048,15.8777745 C12.8499016,15.4758098 12.9858969,15.0695783 13.0758054,14.6648084 L11.4395466,14.1956188 C11.4297436,14.2288477 11.4201731,14.2622948 11.4108512,14.2959521 C11.0035196,15.7652209 11.3202888,15.2758574 11.0035196,15.7652209 C10.6751808,16.2734363 10.9297132,16.810715 11.154723,17.2918308 C11.3725517,17.758415 11.0685491,18.0152719 10.8403476,18.3934878 C10.6967243,18.6307074 10.5531011,18.8683197 10.4098767,19.1051465 C10.2642587,19.3466862 10.1437747,19.6062924 9.97142674,19.8313368 C9.83737834,20.0065022 9.66183877,20.1302177 9.51263013,20.2892805 C9.3702037,20.4408811 9.25211344,20.6341129 9.20184529,20.8359851 C9.00196955,21.6395467 9.8333888,21.8473102 10.4150631,22.1336232 C10.4150631,22.1336232 10.6412698,22.2231697 10.5056256,22.6685454 C10.5056256,22.6685454 10.3245007,23.069148 10.5507073,23.4697505 L10.9580389,23.8707458 C10.9580389,23.8707458 10.6416687,24.2273607 10.777313,24.449263 C10.9129572,24.6727364 11.2748081,25.073339 11.0486014,25.5187148 C10.8227937,25.9644833 10.777313,27.0327567 11.8628656,27.5232985 C12.2446642,27.562966 12.6276596,27.6069537 13.0074634,27.6639021 C13.6832908,27.765231 14.3818585,27.8999434 15.0381371,28.0896405 C15.6377644,28.2636277 15.6632974,28.7910877 15.7885688,29.3044089 C15.890302,29.7215068 16.0063975,30.13507 16.1153118,30.5513825 L26.4286607,30.5513825 C26.4286607,30.5513825 24.6194062,26.1871712 27.0621989,22.0008745 C27.5952009,21.0877364 28.2654429,20.364688 28.6049524,19.3195867 C28.6249774,19.2580744 28.6440244,19.1962403 28.6621057,19.1341082 L26.609035,18.5453996 Z M16.9647855,15.7799556 C17.04849,15.8443608 17.1445252,15.8953835 17.2447551,15.9042239 C17.5821779,15.9326182 17.8666562,16.0640875 18.1961768,16.3429737 L18.255048,16.3927609 L18.3218214,16.3561984 C18.4004904,16.3120687 18.4761214,16.2715128 18.549352,16.2343227 L16.9647855,15.7799556 Z M22.555359,13.5806483 C22.4870317,13.5192914 22.4317886,13.4512649 22.3934163,13.3786904 C22.312419,13.2250502 22.3132092,13.0628528 22.3953918,12.9208815 L22.501281,12.7376801 L22.5913658,12.9282718 C22.7371609,13.237108 22.8770293,13.4280886 23.1599271,13.4914895 C23.4515173,13.5580021 23.6909532,13.4059177 23.9386863,13.2382749 L24.1002858,13.1281985 L24.1109537,13.3215129 C24.1283385,13.6167354 24.0670967,13.6564096 23.5984978,13.8629487 C23.5984354,13.8685619 23.5983538,13.8741434 23.5982531,13.8796935 L22.555359,13.5806483 Z M24.7072032,14.1976797 L24.7083581,14.1962896 L24.9410771,14.2612463 L24.9404616,14.2645655 L24.7072032,14.1976797 Z M25.6568328,18.27236 L25.6617553,18.3457416 L25.9541357,18.3714132 L25.956465,18.3582782 L25.6568328,18.27236 Z M13.4812445,14.7810663 L13.3343645,14.8641382 L13.5777515,14.9784932 C13.6077797,14.9928848 13.6374129,15.0072764 13.6662558,15.0197232 C13.7306585,15.0496733 13.7998025,15.0757338 13.8689466,15.1006274 C14.0044688,15.1504146 14.1324841,15.1974791 14.2111107,15.2776053 C14.4114308,15.4825886 14.5829079,15.7093537 14.7642628,15.9489546 C14.812071,16.0119666 14.8598791,16.0753675 14.9084775,16.1383794 L14.8733128,16.1562717 C14.7496438,16.2185057 14.6417791,16.2729604 14.539446,16.3367503 C14.477809,16.3752576 14.4533123,16.4409922 14.433952,16.4942801 C14.4284205,16.5094496 14.4228889,16.5250081 14.4161721,16.5386218 L14.31779,16.7350479 L14.5362851,16.6934289 C14.5524846,16.6903172 14.5694742,16.6883724 14.5864639,16.6864276 C14.6378281,16.6809821 14.7014405,16.6743697 14.765053,16.6339176 C14.9155895,16.5397887 15.0692867,16.4472156 15.2004628,16.5125613 C15.2858063,16.5553472 15.3762862,16.5922986 15.4671612,16.6292501 C15.7634927,16.7502174 16.0432296,16.8641834 16.1435872,17.1846885 L16.1759861,17.2597583 L16.2471057,17.2725941 L16.2905677,17.1706859 L16.2644905,17.2760947 L16.3383758,17.293598 L16.3814426,17.2329199 C16.4900975,17.0785018 16.4403138,16.9466435 16.3838133,16.837734 C16.5367204,16.9093031 16.6781693,16.9750377 16.8200133,17.0364938 C16.8717725,17.0602205 16.9262975,17.0617764 16.9697595,17.0629433 L17.1791671,17.0800576 L17.1218763,16.920583 C17.1183203,16.91047 17.1159497,16.8984121 17.1131839,16.8871322 C17.1021209,16.8392898 17.0871067,16.7739441 17.0274453,16.7362148 L16.9539551,16.6883724 C16.837003,16.6109688 16.7160997,16.5312315 16.575441,16.4977807 C16.4995801,16.4794995 16.4023834,16.4868898 16.3067671,16.4977807 C16.2676514,16.5020593 16.2293258,16.5071158 16.1925807,16.5078938 L16.0341421,16.4343799 L16.0392785,16.4674417 C16.0072747,16.453828 15.9748758,16.4409922 15.942872,16.4281565 C15.6113758,16.2947423 15.2984498,16.1687185 15.1206509,15.8268204 C14.9926113,15.5800181 14.8065464,15.3334972 14.5665892,15.0922838 L13.4812445,14.7810663 Z M19.8279757,18.6619682 L19.760017,18.5795081 C19.5024061,18.2671712 19.1799974,18.1481487 18.7738257,18.2088268 L18.7722453,18.2088268 C18.6307964,18.2088268 18.5296485,18.019791 18.5154246,17.9419985 C18.4423295,17.5413672 18.1637779,17.3188806 17.8105507,17.3861711 C17.7299486,17.4021186 17.6489513,17.4417928 17.5632127,17.4838007 C17.5217263,17.5040268 17.4802399,17.5242528 17.4383584,17.5417561 L17.393316,17.5612042 L17.1775866,17.4713539 L17.2435698,17.3624444 C17.2534475,17.346108 17.2621399,17.3278267 17.2708323,17.3099345 C17.2980948,17.2531459 17.3289133,17.1889671 17.3925258,17.148515 C17.5584714,17.0399945 17.7441725,16.982428 17.9286882,16.982428 C18.3044366,16.982428 18.6386985,17.2173614 18.8018784,17.5962109 C18.8315116,17.6654462 18.8540328,17.7381822 18.8777393,17.8167526 L18.8836659,17.8350339 C19.2459806,17.7961376 19.5790572,17.9054361 19.8773642,18.1516493 C19.8990952,18.1427032 19.945718,18.1318123 19.9804876,18.1166427 C20.4340724,17.9213835 20.9378359,18.0279593 21.2254751,18.3823041 L21.3475636,18.5324436 L21.1543555,18.5573372 C21.1342049,18.56006 21.1144495,18.5651165 21.0966696,18.5690061 C21.0650609,18.5767854 21.0350327,18.5837867 21.0038191,18.5837867 L20.9674691,18.5837867 L20.9113637,18.5557814 C20.5794724,18.3099571 20.2708925,18.3235708 19.9141093,18.5962335 L19.8279757,18.6619682 Z M20.5984376,19.4791784 L20.3167251,19.4383373 C20.276424,19.4321139 20.2440251,19.4301691 20.2179479,19.4278353 C20.1590767,19.4231678 20.1077126,19.4196671 20.0638555,19.3803819 C19.8809202,19.2201294 19.6857365,19.1839558 19.3159148,19.26486 C18.6726779,19.4060534 18.18946,19.2465788 17.8528274,18.7891589 C17.8172676,18.7405386 17.7947464,18.6872507 17.774991,18.6401863 L17.706242,18.4908247 L17.9456779,18.373358 L18.0345774,18.4499836 C18.0653958,18.4744882 18.1001654,18.5024935 18.1290083,18.5398339 C18.4130915,18.9163496 18.7868643,19.0233143 19.3269778,18.8879554 C19.6995653,18.7934375 19.9943164,18.8455585 20.2317767,19.0423735 C20.2736582,19.0769912 20.3052669,19.1174433 20.3447778,19.1687863 C20.3649283,19.1948468 20.3882398,19.2255748 20.418268,19.2613594 L20.5984376,19.4791784 Z M23.3353554,12.635383 L23.2164277,12.5852068 C23.1682244,12.5649808 23.1204163,12.541643 23.072213,12.5183053 C22.973831,12.4704629 22.8805853,12.4253432 22.7865494,12.407451 C22.6964647,12.3903366 22.5716103,12.3922814 22.4455707,12.3977269 C22.3890701,12.4000607 22.3325696,12.4023945 22.276069,12.4023945 L22.1294837,12.4023945 L22.1701799,12.2639238 C22.2219391,12.0873348 22.3855141,11.9823149 22.6083554,11.9823149 C22.8632005,11.9823149 23.1516299,12.1133953 23.3610375,12.324602 L23.4048945,12.3689437 L23.3353554,12.635383 Z M10.1119755,11.4350556 L30.828494,17.3754217 L30.5809787,18.2386099 L9.86446026,12.2982438 L10.1119755,11.4350556 Z" id="Shape" sketch:type="MSShapeGroup"></path>
            </g>
        </g>
    </g>
</svg>