<?xml version="1.0" encoding="UTF-8" standalone="no"?>
<svg width="24px" height="24px" viewBox="0 0 24 24" version="1.1" xmlns="http://www.w3.org/2000/svg" xmlns:xlink="http://www.w3.org/1999/xlink" xmlns:sketch="http://www.bohemiancoding.com/sketch/ns">
    <!-- Generator: Sketch 3.5.1 (25234) - http://www.bohemiancoding.com/sketch -->
    <title>Link</title>
    <desc>Created with Sketch.</desc>
    <defs></defs>
    <g id="Welcome" stroke="none" stroke-width="1" fill="none" fill-rule="evenodd" sketch:type="MSPage">
        <g id="Icons" sketch:type="MSArtboardGroup" transform="translate(-359.000000, -257.000000)" fill="#FFFFFF">
            <g id="Group-3-Copy-15" sketch:type="MSLayerGroup" transform="translate(351.000000, 248.000000)">
                <path d="M25.9259166,21.8990965 L28.8829769,18.9415695 C31.0401633,16.7848498 31.0401633,13.2747845 28.8829769,11.1180648 C26.7260239,8.96064508 23.2161918,8.96064508 21.0592388,11.1180648 L16.7917665,15.385537 C14.6345802,17.5422567 14.6345802,21.0523221 16.7917665,23.2090418 C17.1102695,23.527778 17.4588726,23.7979805 17.827776,24.0224492 L20.1123635,21.7376284 C19.6771929,21.6335607 19.2644224,21.4139921 18.9256194,21.0754223 C17.9451437,20.0949467 17.9451437,18.4993988 18.9256194,17.5191565 L23.1930916,13.2516842 C24.1735673,12.2712086 25.7691151,12.2712086 26.7493574,13.2516842 C27.729833,14.2321599 27.729833,15.8274744 26.7493574,16.80795 L25.495646,18.0618948 C26.0122507,19.2778059 26.155052,20.6150514 25.9259166,21.8990965 Z M14.0755084,18.1013285 L11.1184481,21.0586222 C8.96102841,23.2155752 8.96102841,26.7254072 11.1184481,28.8823602 C13.2751678,31.0395466 16.7852332,31.0395466 18.9421862,28.8823602 L23.2094251,24.614888 C25.3666115,22.4579349 25.3663781,18.9481029 23.2094251,16.7913832 C22.8911555,16.472647 22.5425524,16.2024445 22.173649,15.9779758 L19.8890615,18.2627966 C20.3239988,18.3670976 20.7367692,18.5861996 21.0758056,18.9250027 C22.0562813,19.9054783 22.0562813,21.5007929 21.0758056,22.4812685 L16.8081,26.7487408 C15.8276244,27.7292164 14.2323099,27.7292164 13.2518342,26.7487408 C12.2713586,25.7682651 12.2713586,24.1729506 13.2518342,23.192475 L14.505779,21.9387635 C13.988941,20.7228524 13.8461397,19.3853736 14.0755084,18.1013285 Z" id="Link" sketch:type="MSShapeGroup"></path>
            </g>
        </g>
    </g>
</svg>