<?xml version="1.0" encoding="UTF-8" standalone="no"?>
<svg width="20px" height="17px" viewBox="0 0 20 17" version="1.1" xmlns="http://www.w3.org/2000/svg" xmlns:xlink="http://www.w3.org/1999/xlink" xmlns:sketch="http://www.bohemiancoding.com/sketch/ns">
    <!-- Generator: Sketch 3.5.1 (25234) - http://www.bohemiancoding.com/sketch -->
    <title>List</title>
    <desc>Created with Sketch.</desc>
    <defs></defs>
    <g id="Main" stroke="none" stroke-width="1" fill="none" fill-rule="evenodd" sketch:type="MSPage">
        <g id="Icons" sketch:type="MSArtboardGroup" transform="translate(-417.000000, -147.000000)" fill="#FFFFFF">
            <path d="M422.406975,147.501682 C422.406975,147.224611 422.636197,147 422.9093,147 L436.497675,147 C436.775101,147 437,147.223083 437,147.501682 L437,149.898318 C437,150.175389 436.770778,150.4 436.497675,150.4 L422.9093,150.4 C422.631874,150.4 422.406975,150.176917 422.406975,149.898318 L422.406975,147.501682 Z M417,147.501682 C417,147.224611 417.233314,147 417.506904,147 L419.737281,147 C420.017237,147 420.244185,147.223083 420.244185,147.501682 L420.244185,149.898318 C420.244185,150.175389 420.010871,150.4 419.737281,150.4 L417.506904,150.4 C417.226949,150.4 417,150.176917 417,149.898318 L417,147.501682 Z M417,154.301682 C417,154.024611 417.233314,153.8 417.506904,153.8 L419.737281,153.8 C420.017237,153.8 420.244185,154.023083 420.244185,154.301682 L420.244185,156.698318 C420.244185,156.975389 420.010871,157.2 419.737281,157.2 L417.506904,157.2 C417.226949,157.2 417,156.976917 417,156.698318 L417,154.301682 Z M417,161.101682 C417,160.824611 417.233314,160.6 417.506904,160.6 L419.737281,160.6 C420.017237,160.6 420.244185,160.823083 420.244185,161.101682 L420.244185,163.498318 C420.244185,163.775389 420.010871,164 419.737281,164 L417.506904,164 C417.226949,164 417,163.776917 417,163.498318 L417,161.101682 Z M422.406975,154.301682 C422.406975,154.024611 422.636197,153.8 422.9093,153.8 L436.497675,153.8 C436.775101,153.8 437,154.023083 437,154.301682 L437,156.698318 C437,156.975389 436.770778,157.2 436.497675,157.2 L422.9093,157.2 C422.631874,157.2 422.406975,156.976917 422.406975,156.698318 L422.406975,154.301682 Z M422.406975,161.101682 C422.406975,160.824611 422.636197,160.6 422.9093,160.6 L436.497675,160.6 C436.775101,160.6 437,160.823083 437,161.101682 L437,163.498318 C437,163.775389 436.770778,164 436.497675,164 L422.9093,164 C422.631874,164 422.406975,163.776917 422.406975,163.498318 L422.406975,161.101682 Z" id="List" sketch:type="MSShapeGroup"></path>
        </g>
    </g>
</svg>