<?xml version="1.0" encoding="UTF-8" standalone="no"?>
<svg width="26px" height="10px" viewBox="0 0 26 10" version="1.1" xmlns="http://www.w3.org/2000/svg" xmlns:xlink="http://www.w3.org/1999/xlink" xmlns:sketch="http://www.bohemiancoding.com/sketch/ns">
    <!-- Generator: Sketch 3.5.1 (25234) - http://www.bohemiancoding.com/sketch -->
    <title>More</title>
    <desc>Created with Sketch.</desc>
    <defs></defs>
    <g id="Welcome" stroke="none" stroke-width="1" fill="none" fill-rule="evenodd" sketch:type="MSPage">
        <g id="Icons" sketch:type="MSArtboardGroup" transform="translate(-526.000000, -264.000000)" fill="#FFFFFF">
            <g id="Group-3-Copy-18" sketch:type="MSLayerGroup" transform="translate(519.000000, 248.000000)">
                <path d="M21.895495,17.4256396 C21.626307,17.2298665 21.3081758,17.0830367 20.9655729,16.9851502 C20.6474416,16.8872636 20.2803671,16.8383204 19.9132925,16.8383204 C19.4238598,16.8383204 18.9588988,16.9362069 18.542881,17.1075083 C17.9066185,17.3766963 17.3682425,17.8171858 17.001168,18.3800334 C16.8053949,18.6492214 16.6585651,18.9673526 16.5606785,19.3099555 C16.462792,19.6280868 16.4138487,19.9951613 16.4138487,20.3622358 C16.4138487,20.8516685 16.5117353,21.3166296 16.6830367,21.7326474 C16.9522247,22.3689099 17.3927141,22.9072859 17.9555617,23.2743604 C18.2247497,23.4701335 18.542881,23.6169633 18.8854839,23.7148498 C19.2036151,23.8127364 19.5706897,23.8616796 19.9377642,23.8616796 C20.4271969,23.8616796 20.892158,23.7637931 21.3081758,23.5924917 C21.9444383,23.3233037 22.4828142,22.8828142 22.8498888,22.3199666 C23.0456618,22.0507786 23.1924917,21.7326474 23.2903782,21.3900445 C23.3882647,21.0719132 23.437208,20.7048387 23.437208,20.3377642 C23.437208,19.8483315 23.3393215,19.3833704 23.16802,18.9673526 C22.898832,18.3310901 22.4583426,17.7927141 21.895495,17.4256396 Z M21.9933815,21.1942714 C21.8220801,21.5858176 21.5528921,21.9284205 21.1858176,22.1731368 C21.0145161,22.295495 20.818743,22.3933815 20.5984983,22.4423248 C20.4027253,22.5157397 20.1824805,22.5402113 19.9377642,22.5402113 C19.6196329,22.5402113 19.3504449,22.4667964 19.081257,22.3689099 C18.6897108,22.1976085 18.3471079,21.9284205 18.1023915,21.5613459 C17.9800334,21.3900445 17.8821468,21.1942714 17.8332036,20.9740267 C17.7597887,20.7782536 17.735317,20.5580089 17.735317,20.3132925 C17.735317,19.9951613 17.8087319,19.7259733 17.9066185,19.4567853 C18.0779199,19.0652392 18.3471079,18.7226363 18.7141824,18.4779199 C18.8854839,18.3555617 19.081257,18.2576752 19.3015017,18.2087319 C19.4972747,18.135317 19.7175195,18.1108454 19.9622358,18.1108454 C20.2803671,18.1108454 20.5495551,18.1842603 20.818743,18.2821468 C21.2102892,18.4534483 21.5528921,18.7226363 21.7976085,19.0897108 C21.9199666,19.2610122 22.0178532,19.4567853 22.0667964,19.67703 C22.1402113,19.8728031 22.164683,20.0930478 22.164683,20.3377642 C22.164683,20.6314238 22.0912681,20.9250834 21.9933815,21.1942714 Z M13.4071746,17.4256396 C13.1379867,17.2298665 12.8198554,17.0830367 12.4772525,16.9851502 C12.1591212,16.8872636 11.7920467,16.8383204 11.4249722,16.8383204 C10.9355395,16.8383204 10.4705784,16.9362069 10.0545606,17.1075083 C9.41829811,17.3766963 8.87992214,17.8171858 8.51284761,18.3800334 C8.34154616,18.6492214 8.19471635,18.9673526 8.09682981,19.2854839 C7.99894327,19.6036151 7.95,19.9706897 7.95,20.3377642 C7.95,20.8271969 8.04788654,21.292158 8.21918799,21.7081758 C8.48837597,22.3444383 8.92886541,22.8828142 9.49171301,23.2498888 C9.760901,23.4456618 10.0790323,23.5924917 10.4216352,23.6903782 C10.7397664,23.7882647 11.1068409,23.837208 11.4739155,23.837208 C11.9633482,23.837208 12.4283092,23.7393215 12.844327,23.56802 C13.4805895,23.298832 14.0189655,22.8583426 14.38604,22.295495 C14.5818131,22.026307 14.7286429,21.7081758 14.8265295,21.3655729 C14.924416,21.0474416 14.9733593,20.6803671 14.9733593,20.3132925 C14.9733593,19.8238598 14.8754727,19.3588988 14.7041713,18.942881 C14.4105117,18.3310901 13.9700222,17.7927141 13.4071746,17.4256396 L13.4071746,17.4256396 Z M13.4805895,21.1942714 C13.3092881,21.5858176 13.0401001,21.9284205 12.6730256,22.1731368 C12.5017241,22.295495 12.3059511,22.3933815 12.0857063,22.4423248 C11.8899333,22.5157397 11.6696885,22.5402113 11.4249722,22.5402113 C11.1068409,22.5402113 10.8376529,22.4667964 10.568465,22.3689099 C10.1769188,22.1976085 9.83431591,21.9284205 9.58959956,21.5613459 C9.46724138,21.3900445 9.36935484,21.1942714 9.32041157,20.9740267 C9.24699666,20.7782536 9.22252503,20.5580089 9.22252503,20.3132925 C9.22252503,19.9951613 9.29593993,19.7259733 9.39382647,19.4567853 C9.56512792,19.0652392 9.83431591,18.7226363 10.2013904,18.4779199 C10.3726919,18.3555617 10.568465,18.2576752 10.7887097,18.2087319 C10.9844828,18.135317 11.2047275,18.1108454 11.4494438,18.1108454 C11.7675751,18.1108454 12.0367631,18.1842603 12.3059511,18.2821468 C12.6974972,18.4534483 13.0401001,18.7226363 13.2848165,19.0897108 C13.4071746,19.2610122 13.5050612,19.4567853 13.5540044,19.67703 C13.6274194,19.8728031 13.651891,20.0930478 13.651891,20.3377642 C13.651891,20.6314238 13.6029477,20.9250834 13.4805895,21.1942714 Z M31.680812,18.9673526 C31.411624,18.3310901 30.9711346,17.7927141 30.408287,17.4256396 C30.139099,17.2298665 29.8209677,17.0830367 29.4783648,16.9851502 C29.1602336,16.8872636 28.7931591,16.8383204 28.4260845,16.8383204 C27.9366518,16.8383204 27.4716908,16.9362069 27.055673,17.1075083 C26.4194105,17.3766963 25.8810345,17.8171858 25.51396,18.3800334 C25.3181869,18.6492214 25.1713571,18.9673526 25.0734705,19.3099555 C24.975584,19.6280868 24.9266407,19.9951613 24.9266407,20.3622358 C24.9266407,20.8516685 25.0245273,21.3166296 25.1958287,21.7326474 C25.4650167,22.3689099 25.9055061,22.9072859 26.4683537,23.2743604 C26.7375417,23.4701335 27.055673,23.6169633 27.3982759,23.7148498 C27.7164071,23.8127364 28.0834816,23.8616796 28.4505562,23.8616796 C28.9399889,23.8616796 29.4049499,23.7637931 29.8209677,23.5924917 C30.4572303,23.3233037 30.9956062,22.8828142 31.3626808,22.3199666 C31.5584538,22.0507786 31.7052836,21.7326474 31.8031702,21.3900445 C31.9010567,21.0719132 31.95,20.7048387 31.95,20.3377642 C31.95,19.8483315 31.8521135,19.3833704 31.680812,18.9673526 Z M30.4817019,21.1942714 C30.3104004,21.5858176 30.0412125,21.9284205 29.6741379,22.1731368 C29.5028365,22.295495 29.3070634,22.3933815 29.0868187,22.4423248 C28.8910456,22.5157397 28.6708009,22.5402113 28.4260845,22.5402113 C28.1079533,22.5402113 27.8387653,22.4667964 27.5695773,22.3689099 C27.1780311,22.1976085 26.8354283,21.9284205 26.5907119,21.5613459 C26.4683537,21.3900445 26.3704672,21.1942714 26.3215239,20.9740267 C26.248109,20.7782536 26.2236374,20.5580089 26.2236374,20.3132925 C26.2236374,19.9951613 26.2970523,19.7259733 26.3949388,19.4567853 C26.5662403,19.0652392 26.8354283,18.7226363 27.2025028,18.4779199 C27.3738042,18.3555617 27.5695773,18.2576752 27.789822,18.2087319 C27.9855951,18.135317 28.2058398,18.1108454 28.4505562,18.1108454 C28.7686874,18.1108454 29.0378754,18.1842603 29.3070634,18.2821468 C29.6986096,18.4534483 30.0412125,18.7226363 30.2859288,19.0897108 C30.408287,19.2610122 30.5061735,19.4567853 30.5551168,19.67703 C30.6285317,19.8728031 30.6530033,20.0930478 30.6530033,20.3377642 C30.6530033,20.6314238 30.6040601,20.9250834 30.4817019,21.1942714 Z" id="More" sketch:type="MSShapeGroup"></path>
            </g>
        </g>
    </g>
</svg>