<?xml version="1.0" encoding="UTF-8" standalone="no"?>
<svg width="23px" height="25px" viewBox="0 0 23 25" version="1.1" xmlns="http://www.w3.org/2000/svg" xmlns:xlink="http://www.w3.org/1999/xlink" xmlns:sketch="http://www.bohemiancoding.com/sketch/ns">
    <!-- Generator: Sketch 3.5.1 (25234) - http://www.bohemiancoding.com/sketch -->
    <title>Move</title>
    <desc>Created with Sketch.</desc>
    <defs></defs>
    <g id="Welcome" stroke="none" stroke-width="1" fill="none" fill-rule="evenodd" sketch:type="MSPage">
        <g id="Icons" sketch:type="MSArtboardGroup" transform="translate(-302.000000, -145.000000)" fill="#FFFFFF">
            <g id="Group-3-Copy-4" sketch:type="MSLayerGroup" transform="translate(295.000000, 136.000000)">
                <path d="M17.9371922,31.3111153 C17.5718736,31.2944566 17.4430023,31.3385172 17.2064949,31.2793511 C16.8133434,31.1809979 15.4304764,30.4185583 15.1483605,30.0911056 C15.0932202,30.0271041 15.0787487,29.9341582 15.0224931,29.871135 C14.9909019,29.8357435 14.932092,29.8373102 14.895198,29.8074875 C14.5067964,29.4935286 14.2773364,28.8699537 13.9232353,28.5177629 C13.3013066,27.8991895 13.1485923,26.8183246 12.5858241,26.1805424 C11.359509,24.7907657 11.8468918,25.187602 10.4152104,23.6866457 C10.0821933,23.3375149 9.08745185,22.8546805 8.76742979,22.2447355 C8.44740773,21.6347905 9.10238331,20.6980178 9.69608865,20.6297547 C10.1810365,20.5739963 10.5014316,20.61823 11.0482711,20.7595476 C12.1362082,21.0406992 12.6453795,21.5343998 13.4882906,22.181088 C13.6943027,22.3391422 14.8057569,23.0309668 14.8780667,22.297795 C15.052619,20.5279548 14.4577169,18.9110625 14.0612372,17.2202701 C14.0346841,17.1070343 13.9065005,16.6351134 13.8808827,16.5108681 C13.7383439,15.8195584 13.4995958,15.1109973 13.28676,14.4421455 C12.9806248,13.4800938 13.0322288,12.9898627 13.0321699,11.8005953 C13.0321469,11.3338866 13.876064,10.995617 13.9232351,10.9624706 C13.950692,10.9431771 14.5994454,10.8670589 15.0901855,11.9067142 C15.1475585,12.0282617 16.1964753,15.3488539 16.2440495,15.4500365 C16.4479436,15.8836858 16.6196789,16.4720136 16.777023,16.9246364 C16.9091337,17.3046718 17.1066533,17.4684146 17.2064951,17.8581733 C17.263109,18.0791807 17.7762159,18.4091293 17.9001933,18.1460738 C18.203886,17.5016982 17.9726166,16.7375186 17.9319576,16.0773512 C17.8735393,15.128831 17.8441988,14.6218816 17.8060902,13.6690959 C17.8000947,13.5191972 17.5160354,12.1123676 17.4812509,11.8637283 C17.3846297,11.1730816 17.296569,11.1342775 17.5620882,10.4016587 C17.6257196,10.2260876 17.7131626,10.0599735 17.7955021,9.89235968 C17.8123587,9.85804561 18.0440858,9.6480451 18.156211,9.62718154 C18.3578496,9.58966188 18.5690652,9.59428748 18.7715099,9.62718154 C19.5239528,9.74944165 19.7414471,11.42351 19.8535176,11.9717893 C19.9077978,12.2373429 20.0296533,13.1202314 20.0657553,13.2964903 C20.2144479,14.0224453 20.3209909,14.6874442 20.4369803,15.4198402 C20.62602,16.3825841 20.7896272,17.858173 21.1990042,17.8581733 C21.6083813,17.8581736 21.6952278,16.5462474 21.7312973,16.1276743 C21.7728882,15.6450281 21.8438274,15.1790382 21.8904759,14.6968545 C21.9186403,14.4057317 22.3484538,12.3662757 22.4421273,12.012833 C22.5050522,11.7754091 22.5481271,11.3788039 23.0463351,10.9169712 C23.5445431,10.4551385 23.7159925,10.6398716 24.2455528,10.8670589 C24.9629409,11.4480788 24.8383515,11.998098 24.8502636,12.2885993 C24.9120775,13.7960609 24.4435108,15.05197 24.4153191,16.5321632 C24.3679924,19.0170354 24.0392754,18.8604939 24.4153193,19.2267734 C24.5856379,19.4463479 25.0255128,19.0504575 25.0822499,18.9071076 C25.1778689,18.66552 25.222663,18.3895568 25.3156637,18.1539256 C25.448139,17.8182797 25.7387438,17.002356 25.7611963,16.9246364 C25.8459741,16.6311774 26.408238,13.5824302 27.9453172,13.7208467 C28.0721298,13.7322664 28.2092115,13.7456812 28.3151865,13.8162585 C28.4321018,13.8941217 28.5247542,14.0147819 28.5803647,14.1437755 C28.7826586,14.6130147 28.6336983,15.4873847 28.5803639,15.9091314 C28.514394,16.430794 28.3401308,17.2147597 28.1561272,17.6659217 C28.016316,18.0087277 27.8671992,18.869134 27.7715052,19.2267732 C27.7374663,19.3539875 27.5583157,20.5000004 27.2556637,22.3734582 C26.9870111,24.0364547 26.9663963,27.6709714 26.6141912,28.5177623 C25.8984838,30.2385055 24.1345414,30.8596245 23.4817826,30.9490978 C23.1655898,30.9924382 22.8642205,31.1171559 22.5481272,31.1612165 C22.2782525,31.1988346 22.0003709,31.1501226 21.7312976,31.1930998 C19.6940035,31.518502 20.266626,31.3544652 19.4266629,31.3805922 C18.5866998,31.4067193 18.3025107,31.3277741 17.9371922,31.3111153 Z" id="Move" sketch:type="MSShapeGroup"></path>
            </g>
        </g>
    </g>
</svg>