<?xml version="1.0" encoding="UTF-8" standalone="no"?>
<svg width="29px" height="24px" viewBox="0 0 29 24" version="1.1" xmlns="http://www.w3.org/2000/svg" xmlns:xlink="http://www.w3.org/1999/xlink" xmlns:sketch="http://www.bohemiancoding.com/sketch/ns">
    <!-- Generator: Sketch 3.5.1 (25234) - http://www.bohemiancoding.com/sketch -->
    <title>MPR</title>
    <desc>Created with Sketch.</desc>
    <defs>
        <linearGradient x1="-5.55111512e-15%" y1="100%" x2="100%" y2="1.11022302e-14%" id="linearGradient-1">
            <stop stop-color="#D1D1D1" offset="0%"></stop>
            <stop stop-color="#DEDEDE" offset="28.4082031%"></stop>
            <stop stop-color="#FFFFFF" offset="100%"></stop>
        </linearGradient>
        <filter x="-50%" y="-50%" width="200%" height="200%" filterUnits="objectBoundingBox" id="filter-2">
            <feOffset dx="0" dy="0.5" in="SourceAlpha" result="shadowOffsetOuter1"></feOffset>
            <feGaussianBlur stdDeviation="0.25" in="shadowOffsetOuter1" result="shadowBlurOuter1"></feGaussianBlur>
            <feColorMatrix values="0 0 0 0 0   0 0 0 0 0   0 0 0 0 0  0 0 0 0.14 0" in="shadowBlurOuter1" type="matrix" result="shadowMatrixOuter1"></feColorMatrix>
            <feOffset dx="0" dy="0.5" in="SourceAlpha" result="shadowOffsetInner1"></feOffset>
            <feGaussianBlur stdDeviation="0.25" in="shadowOffsetInner1" result="shadowBlurInner1"></feGaussianBlur>
            <feComposite in="shadowBlurInner1" in2="SourceAlpha" operator="arithmetic" k2="-1" k3="1" result="shadowInnerInner1"></feComposite>
            <feColorMatrix values="0 0 0 0 1   0 0 0 0 1   0 0 0 0 1  0 0 0 0.14 0" in="shadowInnerInner1" type="matrix" result="shadowMatrixInner1"></feColorMatrix>
            <feMerge>
                <feMergeNode in="shadowMatrixOuter1"></feMergeNode>
                <feMergeNode in="SourceGraphic"></feMergeNode>
                <feMergeNode in="shadowMatrixInner1"></feMergeNode>
            </feMerge>
        </filter>
    </defs>
    <g id="Welcome" stroke="none" stroke-width="1" fill="none" fill-rule="evenodd" sketch:type="MSPage">
        <g id="Icons" sketch:type="MSArtboardGroup" transform="translate(-525.000000, -146.000000)" filter="url(#filter-2)" fill="url(#linearGradient-1)">
            <g id="Group-3-Copy-8" sketch:type="MSLayerGroup" transform="translate(519.000000, 136.000000)">
                <path d="M10.0309034,24.5574211 L10.0309034,17.4465303 C10.0309034,16.3463874 10.9236401,15.4545455 12.0317988,15.4545455 L14.5763579,15.4545455 L14.5763579,14.7192576 C14.5763579,13.6191147 15.4690946,12.7272727 16.5772533,12.7272727 L19.1218125,12.7272727 L19.1218125,11.9919848 C19.1218125,10.891842 20.0145492,10 21.1227079,10 L28.030008,10 C29.135072,10 30.0309034,10.8879876 30.0309034,11.9919848 L30.0309034,13.0308279 L32.1138509,11.8282376 L33.1138509,13.5602884 L30.0309034,15.5122669 L30.0309034,22.5534697 C30.0309034,23.6536126 29.1381667,24.5454545 28.030008,24.5454545 L25.4854488,24.5454545 L25.4854488,25.2807424 C25.4854488,26.3808853 24.5927121,27.2727273 23.4845534,27.2727273 L20.9399943,27.2727273 L20.9399943,28.0080152 C20.9399943,29.108158 20.0472576,30 18.9390989,30 L12.0317988,30 C10.9267348,30 10.0309034,29.1120124 10.0309034,28.0080152 L10.0309034,26.9415297 L8,28.1140723 L7,26.3820215 L10.0309034,24.5574211 Z M11.8490852,25.8918019 L11.8490852,28.1818182 L19.1218125,28.1818182 L19.1218125,17.2727273 L11.8490852,17.2727273 L11.8490852,23.4628777 L15.7309156,21.1260202 L15.7942286,23.6140723 L11.8490852,25.8918019 Z M20.9399943,25.4545455 L23.667267,25.4545455 L23.667267,14.5454545 L16.3945397,14.5454545 L16.3945397,15.4545455 L18.9390989,15.4545455 C20.0441629,15.4545455 20.9399943,16.3425331 20.9399943,17.4465303 L20.9399943,25.4545455 Z M25.4854488,22.7272727 L28.2127216,22.7272727 L28.2127216,11.8181818 L20.9399943,11.8181818 L20.9399943,12.7272727 L23.4845534,12.7272727 C24.5896174,12.7272727 25.4854488,13.6152603 25.4854488,14.7192576 L25.4854488,22.7272727 Z" id="MPR" sketch:type="MSShapeGroup"></path>
            </g>
        </g>
    </g>
</svg>