<?xml version="1.0" encoding="UTF-8" standalone="no"?>
<svg width="24px" height="24px" viewBox="0 0 24 24" version="1.1" xmlns="http://www.w3.org/2000/svg" xmlns:xlink="http://www.w3.org/1999/xlink" xmlns:sketch="http://www.bohemiancoding.com/sketch/ns">
    <!-- Generator: Sketch 3.5.1 (25234) - http://www.bohemiancoding.com/sketch -->
    <title>Revert</title>
    <desc>Created with Sketch.</desc>
    <defs></defs>
    <g id="Main" stroke="none" stroke-width="1" fill="none" fill-rule="evenodd" sketch:type="MSPage">
        <g id="Icons" sketch:type="MSArtboardGroup" transform="translate(-471.000000, -312.000000)" fill="#FFFFFF">
            <path d="M481.533333,322.133333 L484.493333,322.133333 C485.746667,322.133333 486.733333,323.146667 486.733333,324.373333 C486.733333,325.6 485.72,326.613333 484.493333,326.613333 L480.066667,326.613333 L480.066667,328.853334 L484.52,328.853333 C487,328.853333 489.026667,326.826667 489.026667,324.346667 C489.026667,321.866667 486.973333,319.866667 484.493333,319.866667 L481.533333,319.866667 L481.533333,318.373333 L477.266667,320.933333 L481.533333,323.493333 L481.533333,322.133333 Z M471,324 C471,330.64 476.36,336 483,336 C489.64,336 495,330.64 495,324 C495,317.36 489.64,312 483,312 C476.36,312 471,317.36 471,324 Z M483,333.546667 C477.746509,333.546667 473.453333,329.281736 473.453333,324 C473.453333,318.718264 477.746509,314.453333 483,314.453333 C488.253491,314.453333 492.546667,318.746509 492.546667,324 C492.546667,329.253491 488.253491,333.546667 483,333.546667 Z" id="Revert" sketch:type="MSShapeGroup"></path>
        </g>
    </g>
</svg>