<?xml version="1.0" encoding="UTF-8" standalone="no"?>
<svg width="24px" height="24px" viewBox="0 0 24 24" version="1.1" xmlns="http://www.w3.org/2000/svg" xmlns:xlink="http://www.w3.org/1999/xlink" xmlns:sketch="http://www.bohemiancoding.com/sketch/ns">
    <!-- Generator: Sketch 3.5.1 (25234) - http://www.bohemiancoding.com/sketch -->
    <title>RotateClockwise</title>
    <desc>Created with Sketch.</desc>
    <defs></defs>
    <g id="Welcome" stroke="none" stroke-width="1" fill="none" fill-rule="evenodd" sketch:type="MSPage">
        <g id="Icons" sketch:type="MSArtboardGroup" transform="translate(-303.000000, -201.000000)" fill="#FFFFFF">
            <g id="Group-3-Copy-9" sketch:type="MSLayerGroup" transform="translate(295.000000, 192.000000)">
                <path d="M24.6639606,21.3527047 L23.7242402,30.541 L30.9903359,24.8423266 L29.6845986,24.1229983 C30.2954412,22.7420052 30.6160115,21.2596122 30.6160115,19.8058067 C30.6160115,13.8476474 25.7671424,9 19.8080057,9 C13.8478917,8.99975566 9,13.847403 9,19.8058067 C9,21.4284492 9.37554607,23.0178618 10.1173534,24.5295752 L10.3783054,25.0624743 L13.8271231,23.1585999 L13.604532,22.6799436 C13.1737657,21.7563495 12.9555727,20.7892634 12.9555727,19.8062954 C12.9555727,16.029333 16.0298217,12.9563058 19.8080057,12.9563058 C23.5861898,12.9563058 26.6599501,16.029333 26.6599501,19.8062954 C26.6599501,20.6192048 26.5082167,21.4238068 26.2074378,22.2051967 L24.6639606,21.3527047 L24.6639606,21.3527047 Z" id="RotateClockwise" sketch:type="MSShapeGroup"></path>
            </g>
        </g>
    </g>
</svg>