<?xml version="1.0" encoding="UTF-8" standalone="no"?>
<svg width="18px" height="22px" viewBox="0 0 18 22" version="1.1" xmlns="http://www.w3.org/2000/svg" xmlns:xlink="http://www.w3.org/1999/xlink" xmlns:sketch="http://www.bohemiancoding.com/sketch/ns">
    <!-- Generator: Sketch 3.5.1 (25234) - http://www.bohemiancoding.com/sketch -->
    <title>SelectUser</title>
    <desc>Created with Sketch.</desc>
    <defs></defs>
    <g id="Main" stroke="none" stroke-width="1" fill="none" fill-rule="evenodd" sketch:type="MSPage">
        <g id="Icons" sketch:type="MSArtboardGroup" transform="translate(-307.000000, -315.000000)" fill="#FFFFFF">
            <path d="M323.015015,330.108257 C322.952529,327.47603 320.265637,325.127332 317.320626,324.331387 C318.873463,323.548684 319.948384,321.857568 319.948384,319.897527 C319.948384,317.192698 317.901345,315 315.376194,315 C312.851042,315 310.804003,317.192698 310.804003,319.897527 C310.804003,321.826712 311.845347,323.495372 313.358783,324.293749 C310.404325,325.059748 307.675343,327.488908 307.675343,330.201883 L307.675343,333.489194 L316.973467,333.489194 L315.619167,326.040541 L323.015015,330.108257 Z M324.335383,331.851351 L316.831789,327.910024 L318.524572,336.5 L320.309096,334.187515 L321.532844,335.871859 L322.951239,334.841335 L321.727491,333.156991 L324.335383,331.851351 Z" id="SelectUser" sketch:type="MSShapeGroup"></path>
        </g>
    </g>
</svg>