<?xml version="1.0" encoding="UTF-8" standalone="no"?>
<svg width="22px" height="24px" viewBox="0 0 22 24" version="1.1" xmlns="http://www.w3.org/2000/svg" xmlns:xlink="http://www.w3.org/1999/xlink" xmlns:sketch="http://www.bohemiancoding.com/sketch/ns">
    <!-- Generator: Sketch 3.5.1 (25234) - http://www.bohemiancoding.com/sketch -->
    <title>Series</title>
    <desc>Created with Sketch.</desc>
    <defs></defs>
    <g id="Welcome" stroke="none" stroke-width="1" fill="none" fill-rule="evenodd" sketch:type="MSPage">
        <g id="Icons" sketch:type="MSArtboardGroup" transform="translate(-416.000000, -88.000000)" fill="#FFFFFF">
            <g id="Group-3-Copy" sketch:type="MSLayerGroup" transform="translate(407.000000, 80.000000)">
                <path d="M14,14 L14,12.9940603 C14,11.8927712 14.9019504,11 16.0085302,11 L18,11 L18,9.99406028 C18,8.8927712 18.9019504,8 20.0085302,8 L27.9914698,8 C29.1007504,8 30,8.89451376 30,9.99406028 L30,22.0059397 C30,23.1072288 29.0980496,24 27.9914698,24 L26,24 L26,25.0059397 C26,26.1072288 25.0980496,27 23.9914698,27 L22,27 L22,28.0059397 C22,29.1072288 21.0980496,30 19.9914698,30 L12.0085302,30 C10.8992496,30 10,29.1054862 10,28.0059397 L10,15.9940603 C10,14.8927712 10.9019504,14 12.0085302,14 L14,14 Z M22,25 L24,25 L24,13 L16,13 L16,14 L19.9914698,14 C21.1007504,14 22,14.8945138 22,15.9940603 L22,25 Z M26,22 L28,22 L28,10 L20,10 L20,11 L23.9914698,11 C25.1007504,11 26,11.8945138 26,12.9940603 L26,22 Z M12,16 L20,16 L20,28 L12,28 L12,16 Z" id="Series" sketch:type="MSShapeGroup"></path>
            </g>
        </g>
    </g>
</svg>