<?xml version="1.0" encoding="UTF-8" standalone="no"?>
<svg width="23px" height="23px" viewBox="0 0 23 23" version="1.1" xmlns="http://www.w3.org/2000/svg" xmlns:xlink="http://www.w3.org/1999/xlink" xmlns:sketch="http://www.bohemiancoding.com/sketch/ns">
    <!-- Generator: Sketch 3.5.1 (25234) - http://www.bohemiancoding.com/sketch -->
    <title>Settings</title>
    <desc>Created with Sketch.</desc>
    <defs></defs>
    <g id="Main" stroke="none" stroke-width="1" fill="none" fill-rule="evenodd" sketch:type="MSPage">
        <g id="Icons" sketch:type="MSArtboardGroup" transform="translate(-416.000000, -313.000000)" fill="#FFFFFF">
            <path d="M439,325.88 L439,323.12 L435.703333,322.43 C435.498889,321.637778 435.192222,320.871111 434.757778,320.181111 L436.597778,317.344444 L434.655556,315.402222 L431.818889,317.242222 C431.128889,316.833333 430.362222,316.501111 429.57,316.296667 L428.88,313 L426.12,313 L425.43,316.296667 C424.637778,316.501111 423.871111,316.807778 423.181111,317.242222 L420.344444,315.402222 L418.402222,317.344444 L420.242222,320.181111 C419.833333,320.871111 419.501111,321.637778 419.296667,322.43 L416,323.12 L416,325.88 L419.296667,326.57 C419.501111,327.362222 419.807778,328.128889 420.242222,328.818889 L418.402222,331.655556 L420.344444,333.597778 L423.181111,331.757778 C423.871111,332.166667 424.637778,332.498889 425.43,332.703333 L426.12,336 L428.88,336 L429.57,332.703333 C430.362222,332.498889 431.128889,332.192222 431.818889,331.757778 L434.655556,333.597778 L436.597778,331.655556 L434.757778,328.818889 C435.166667,328.128889 435.498889,327.362222 435.703333,326.57 L439,325.88 L439,325.88 Z M427.5,328.282222 C425.404444,328.282222 423.717778,326.595556 423.717778,324.5 C423.717778,322.404444 425.404444,320.717778 427.5,320.717778 C429.595556,320.717778 431.282222,322.404444 431.282222,324.5 C431.282222,326.595556 429.595556,328.282222 427.5,328.282222 L427.5,328.282222 Z" id="Settings" sketch:type="MSShapeGroup"></path>
        </g>
    </g>
</svg>