<?xml version="1.0" encoding="UTF-8" standalone="no"?>
<svg width="20px" height="21px" viewBox="0 0 20 21" version="1.1" xmlns="http://www.w3.org/2000/svg" xmlns:xlink="http://www.w3.org/1999/xlink" xmlns:sketch="http://www.bohemiancoding.com/sketch/ns">
    <!-- Generator: Sketch 3.5.1 (25234) - http://www.bohemiancoding.com/sketch -->
    <title>Zoom</title>
    <desc>Created with Sketch.</desc>
    <defs></defs>
    <g id="Welcome" stroke="none" stroke-width="1" fill="none" fill-rule="evenodd" sketch:type="MSPage">
        <g id="Icons" sketch:type="MSArtboardGroup" transform="translate(-305.000000, -90.000000)" fill="#FFFFFF">
            <g id="Group-3" sketch:type="MSLayerGroup" transform="translate(295.000000, 80.000000)">
                <path d="M10.2237539,18.6119159 C10.2237539,16.4208354 11.0015758,14.5474896 12.557243,12.9918224 C14.1129102,11.4361553 15.9862559,10.6583333 18.1773364,10.6583333 C20.368417,10.6583333 22.2417627,11.4361553 23.7974299,12.9918224 C25.3530971,14.5474896 26.130919,16.4208354 26.130919,18.6119159 C26.130919,20.1675831 25.7036647,21.5972417 24.8491433,22.9009346 L29.7790498,27.8308411 C29.8557377,27.9184843 29.894081,28.0170815 29.894081,28.1266355 C29.894081,28.2361895 29.8557377,28.3347867 29.7790498,28.4224299 L27.9878505,30.2136293 C27.9002072,30.2903171 27.8016101,30.3286604 27.6920561,30.3286604 C27.582502,30.3286604 27.4839049,30.2903171 27.3962617,30.2136293 L22.4663551,25.2837227 C21.1626622,26.1382441 19.7330036,26.5654984 18.1773364,26.5654984 C15.9862559,26.5654984 14.1129102,25.7876765 12.557243,24.2320093 C11.0015758,22.6763422 10.2237539,20.8029964 10.2237539,18.6119159 L10.2237539,18.6119159 Z M12.7380062,18.6119159 C12.7380062,20.1018506 13.2693353,21.3781359 14.3320093,22.44081 C15.3946834,23.503484 16.6764463,24.0348131 18.1773364,24.0348131 C19.6782266,24.0348131 20.9572507,23.5062228 22.014447,22.4490265 C23.0716434,21.3918301 23.6002336,20.1128061 23.6002336,18.6119159 C23.6002336,17.1110257 23.0716434,15.8320017 22.014447,14.7748053 C20.9572507,13.7176089 19.6782266,13.1890187 18.1773364,13.1890187 C16.6764463,13.1890187 15.3946834,13.7203477 14.3320093,14.7830218 C13.2693353,15.8456959 12.7380062,17.1219811 12.7380062,18.6119159 L12.7380062,18.6119159 Z" id="Zoom" sketch:type="MSShapeGroup"></path>
            </g>
        </g>
    </g>
</svg>