<?xml version="1.0" standalone="no"?>
<!DOCTYPE svg PUBLIC "-//W3C//DTD SVG 20010904//EN"
 "http://www.w3.org/TR/2001/REC-SVG-20010904/DTD/svg10.dtd">
<svg version="1.0" xmlns="http://www.w3.org/2000/svg"
 width="200.000000pt" height="200.000000pt" viewBox="0 0 200.000000 200.000000"
 preserveAspectRatio="xMidYMid meet">
<metadata>
Created by potrace 1.11, written by Peter Selinger 2001-2013
</metadata>
<g transform="translate(0.000000,200.000000) scale(0.100000,-0.100000)"
fill="#000000" stroke="none">
<path d="M940 1664 c-118 -20 -155 -31 -222 -66 -127 -66 -185 -136 -223 -273
-9 -33 -21 -72 -26 -86 -8 -20 -6 -36 5 -64 16 -37 15 -39 -10 -84 -15 -25
-44 -69 -66 -98 -49 -64 -48 -90 4 -118 33 -17 38 -25 38 -55 0 -20 6 -42 12
-49 15 -14 19 -49 18 -137 -1 -56 2 -64 28 -86 21 -18 47 -27 88 -31 33 -4 82
-13 111 -22 51 -15 52 -16 68 -73 9 -31 18 -63 20 -69 3 -10 76 -13 320 -13
297 0 316 1 311 18 -58 202 -38 369 64 533 91 145 111 227 86 359 -39 206
-156 331 -364 389 -69 19 -215 33 -262 25z m25 -86 c14 -6 25 -17 25 -25 0 -7
5 -13 10 -13 12 0 13 6 1 29 -9 16 -5 17 35 16 24 -1 47 -5 51 -8 3 -3 -9 -18
-26 -32 -17 -15 -31 -33 -31 -40 0 -7 -7 -18 -15 -25 -8 -7 -15 -8 -15 -3 0
15 -47 33 -84 33 -21 0 -36 6 -40 15 -5 15 -36 22 -36 8 0 -20 37 -43 69 -43
20 0 47 -7 59 -16 l22 -15 -20 -22 c-12 -12 -19 -30 -18 -41 3 -21 96 -92 106
-81 7 7 -55 65 -69 65 -22 0 -2 46 28 65 20 12 32 28 33 42 0 25 77 91 90 77
4 -5 10 -20 13 -34 4 -24 4 -24 6 3 l1 28 33 -17 c17 -9 40 -26 50 -38 14 -18
16 -18 11 -2 -6 16 -4 17 12 8 10 -6 33 -22 49 -36 l30 -24 -22 -24 c-13 -13
-23 -31 -23 -39 1 -8 8 -1 16 14 19 36 41 32 72 -13 19 -28 23 -44 19 -78 -4
-33 -2 -40 8 -32 9 8 14 6 19 -6 11 -30 6 -67 -11 -80 -17 -13 -17 -13 0 -14
13 0 17 -5 13 -18 -3 -9 -8 -32 -10 -49 -4 -35 -23 -66 -36 -58 -4 3 -7 -3 -6
-13 1 -21 -17 -19 -80 8 -49 21 -64 44 -43 63 8 7 23 23 34 37 12 16 6 12 -18
-9 -20 -19 -37 -43 -37 -53 0 -11 -16 -26 -41 -38 -43 -22 -61 -22 -34 0 21
17 19 74 -2 91 -15 11 -16 11 -5 -1 17 -20 15 -66 -5 -86 -9 -9 -31 -23 -48
-30 -29 -12 -30 -11 -35 13 -3 15 -11 28 -18 31 -11 3 -11 1 -1 -17 20 -31 0
-44 -75 -49 -56 -4 -66 -1 -82 17 -11 12 -31 34 -46 49 -16 14 -28 36 -28 47
0 20 -3 21 -60 11 -103 -17 -175 18 -123 60 17 14 17 14 -4 5 -31 -15 -32 -15
-48 22 -10 25 -11 43 -4 73 6 21 13 50 16 64 3 14 11 30 18 35 7 6 15 20 19
33 4 13 21 39 38 58 24 27 33 32 44 23 10 -9 14 -9 14 0 0 16 60 51 88 51 12
0 22 4 22 9 0 8 48 23 92 30 4 1 19 -4 33 -11z"/>
<path d="M1150 1472 c0 -4 16 -12 35 -18 27 -9 35 -8 35 1 0 7 -7 16 -16 19
-22 8 -54 8 -54 -2z"/>
<path d="M670 1450 c0 -5 9 -10 20 -10 11 0 27 -11 36 -25 10 -15 26 -25 40
-25 16 0 28 -8 36 -26 8 -18 17 -24 31 -20 18 4 28 -4 61 -49 14 -18 15 -19
16 -2 0 31 -20 58 -56 73 -43 18 -46 39 -3 30 22 -4 29 -2 26 7 -2 8 -25 12
-62 12 -49 0 -60 3 -72 23 -16 22 -73 32 -73 12z"/>
<path d="M1160 1412 c0 -14 9 -27 25 -34 29 -13 33 -38 6 -38 -10 0 -25 -9
-32 -20 -11 -16 -26 -21 -66 -23 -29 -1 -55 -7 -57 -14 -3 -6 -24 -14 -48 -18
-24 -4 -50 -11 -60 -16 -20 -10 -85 14 -111 42 -19 20 -67 26 -67 9 0 -5 8
-10 18 -10 10 0 29 -11 42 -25 13 -14 31 -25 40 -25 9 0 24 -6 34 -13 19 -14
30 -12 141 25 17 6 53 15 80 22 55 13 125 52 125 69 0 6 10 21 22 34 22 23 18
47 -4 25 -18 -18 -39 -15 -65 10 l-23 21 0 -21z"/>
<path d="M1289 1334 c-35 -36 -127 -104 -142 -104 -9 0 -19 -4 -22 -10 -4 -6
9 -10 32 -10 30 0 40 -5 48 -22 13 -29 65 -37 85 -13 13 15 11 17 -10 15 -46
-4 -58 0 -63 22 -7 25 31 73 65 84 21 6 42 40 30 48 -5 3 -15 -2 -23 -10z"/>
<path d="M615 1311 c-3 -5 3 -12 13 -15 10 -4 30 -18 43 -32 20 -21 21 -28 11
-44 -17 -28 -16 -29 22 -23 26 4 39 0 57 -18 14 -14 24 -18 27 -11 2 7 14 10
30 6 l27 -5 -24 20 c-13 12 -34 21 -48 21 -16 0 -37 13 -59 37 -19 20 -34 40
-34 43 0 6 -44 30 -55 30 -2 0 -6 -4 -10 -9z"/>
<path d="M863 1169 c-34 -13 -29 -32 6 -24 25 5 33 2 46 -19 10 -14 25 -26 34
-26 9 0 26 -7 38 -15 15 -11 24 -12 28 -4 5 7 21 8 43 4 30 -6 34 -4 24 8 -7
8 -38 17 -69 20 -43 5 -61 12 -77 30 -26 30 -44 37 -73 26z"/>
<path d="M1340 1161 c0 -6 5 -13 10 -16 6 -3 10 -17 10 -31 0 -13 5 -24 10
-24 6 0 10 5 10 10 0 6 10 15 23 19 l22 9 -27 10 c-14 6 -29 16 -33 21 -8 14
-25 14 -25 2z"/>
<path d="M880 1077 c0 -25 43 -48 86 -46 22 1 50 -2 64 -6 25 -8 25 -8 6 13
-15 17 -30 22 -69 22 -33 0 -57 6 -69 17 -17 15 -18 15 -18 0z"/>
</g>
</svg>
